<svg xmlns="http://www.w3.org/2000/svg" viewBox="0 0 48 48"><title>13-www</title><g id="_13-www" data-name="13-www"><path d="M43,42H5a5.006,5.006,0,0,1-5-5V13A5.006,5.006,0,0,1,5,8H6v2H5a3,3,0,0,0-3,3V37a3,3,0,0,0,3,3H43a3,3,0,0,0,3-3V36h2v1A5.006,5.006,0,0,1,43,42Z"/><rect x="14" y="46" width="20" height="2"/><rect x="17" y="41" width="2" height="6"/><rect x="29" y="41" width="2" height="6"/><path d="M45,34H11a3,3,0,0,1-3-3V3a3,3,0,0,1,3-3H45a3,3,0,0,1,3,3V31A3,3,0,0,1,45,34ZM11,2a1,1,0,0,0-1,1V31a1,1,0,0,0,1,1H45a1,1,0,0,0,1-1V3a1,1,0,0,0-1-1Z"/><rect x="12" y="4" width="2" height="2"/><rect x="16" y="4" width="2" height="2"/><rect x="20" y="4" width="2" height="2"/><path d="M15,24a3,3,0,0,1-3-3V17h2v4a1,1,0,0,0,2,0V17h2v4A3,3,0,0,1,15,24Z"/><path d="M19,24a3,3,0,0,1-3-3V17h2v4a1,1,0,0,0,2,0V17h2v4A3,3,0,0,1,19,24Z"/><path d="M26,24a3,3,0,0,1-3-3V17h2v4a1,1,0,0,0,2,0V17h2v4A3,3,0,0,1,26,24Z"/><path d="M30,24a3,3,0,0,1-3-3V17h2v4a1,1,0,0,0,2,0V17h2v4A3,3,0,0,1,30,24Z"/><path d="M37,24a3,3,0,0,1-3-3V17h2v4a1,1,0,0,0,2,0V17h2v4A3,3,0,0,1,37,24Z"/><path d="M41,24a3,3,0,0,1-3-3V17h2v4a1,1,0,0,0,2,0V17h2v4A3,3,0,0,1,41,24Z"/><rect x="9" y="8" width="38" height="2"/><rect x="42" y="28" width="2" height="2"/><rect x="28" y="28" width="12" height="2"/><path d="M9,38H7a3,3,0,0,1-3-3V33H6v2a1,1,0,0,0,1,1H9Z"/><rect x="11" y="36" width="2" height="2"/></g></svg>